<?xml version="1.0" encoding="UTF-8"?>
<svg version="1.1" viewBox="0 0 2000 2000" width="1280" height="1280" xmlns="http://www.w3.org/2000/svg">
<path transform="translate(1071,800)" d="m0 0 5 1 4 31 5 43-17 2-27 4-19 5-16 6-19 10-13 9-6 5-7 10-3 9v9l4 9 6 5 6 2h11l20-4 25-7 35-10 24-5 16-2h16l20 3 16 6 13 9 10 10 10 15 8 17 4 15 1 7v19l-3 15-6 17-9 16-12 16-19 19-13 10-15 10-22 12-23 11-22 8-26 7-22 4-8 1h-28l-3-26-4-44v-5l33-2 24-4 22-6 22-9 15-8 12-8 8-7h2l2-4 5-7 2-5v-11l-4-8-6-5-6-2h-13l-21 4-57 16-28 6-18 3-5 15-8 16-7 12-11 14-11 12-7 7-14 11-18 12-22 12-23 9-19 5-17 3-10 1h-25l-22-3-21-6-16-7-17-9-12-9-13-11-7-7-9-11-10-14-9-16-7-15-7-21-4-19-1-7v-30l3-19 6-21 7-16 6-12 10-15 11-14 18-18 16-12 19-12 17-9 21-8 17-5 16-3 9-1h30l24 4 19 6 1 5-17 51-7 20-2 1-16-5-11-2h-26l-16 4-16 7-15 10-12 11-9 13-8 17-3 14v24l4 17 8 19 7 11 11 14 13 11 12 7 13 5 10 2 16 1 15-2 17-5 19-10 10-8 5-5h2l2-4 6-8 7-12 6-16 2-7-1-7-8-14-6-15-3-13-1-18 2-16 6-18 10-19 9-12 9-10 14-14 19-14 20-12 21-11 20-8 25-8 26-5z" fill="#000001"/>
<path transform="translate(1560,850)" d="m0 0 19 1 9 10 7 9 14 17 9 11 10 12 1-60h22l1 1v100l-17 1-5-3-9-11-11-13-11-14-13-15-4-4v59l-6 1h-15l-2-1v-100z" fill="#010001"/>
<path transform="translate(1783,850)" d="m0 0h61l16 1v9l-1 9h-53v22h46l1 1v17l-46 1-1 23h55l1 17-5 2h-73l-1-1z" fill="#040305"/>
<path transform="translate(1486,850)" d="m0 0h34l19 1v17l-1 1h-53v22h46l1 1v17l-46 1-1 23h55v18l-12 1h-65l-1-1v-100z" fill="#040204"/>
<path transform="translate(1241,849)" d="m0 0h23l16 4 8 5-6 16-3 1-12-5-10-2h-10l-9 3-4 6 1 6 5 4 32 9 11 6 7 8 2 6v13l-5 10-7 7-11 5-17 3-21-2-15-5-8-5 7-17 5 1 8 4 10 3 7 1h11l9-3 3-4v-6l-5-5-21-6-16-5-10-7-4-6-2-6v-12l4-9 7-8 12-6z" fill="#020103"/>
<path transform="translate(1716,849)" d="m0 0h20l11 3 12 6 7 6-1 5-10 10-3 1-10-7-8-3-9-1-10 2-8 4-8 9-3 8-1 13 2 9 6 9 7 6 7 3 5 1h8l13-4 9-7 3 1v2h2v2l4 2 6 7-5 5-10 7-16 5-13 1-14-2-12-5-11-8-7-8-6-12-3-14v-9l3-12 7-14 6-7 13-9 11-4z" fill="#030203"/>
<path transform="translate(1347,849)" d="m0 0h20l11 3 10 5 9 7-1 5-10 10-3 1-10-7-8-3-9-1-10 2-8 4-8 9-3 8-1 6v8l3 10 6 8 6 5 7 3 5 1h8l13-4 7-6 5 1 10 8 1 5-7 7-12 6-11 3-14 1-16-3-14-7-10-9-7-11-4-13v-21l4-11 6-10 5-6 13-9 12-4z" fill="#030203"/>
<path transform="translate(339,949)" d="m0 0h42l13 2 12 6 5 4 7 10 4 12v15l-3 10-6 9-7 7-10 5-9 2-20 1h-26l-3-3zm22 15-3 1v51h24l9-3 7-6 4-8v-17l-4-8-8-7-7-2-21-1z" fill="#815B96"/>
<path transform="translate(237,948)" d="m0 0h16l12 3 11 7 7 8 5 10 2 7v15l-3 10-6 9-5 5-8 6-11 4-6 1h-14l-12-3-10-6-7-7-7-14-1-3v-18l3-10 6-9 7-7 12-6zm1 16-10 5-5 6-4 11v11l5 10 5 5 7 4 4 1h9l11-4 8-9 2-5v-17l-4-8-8-7-7-3z" fill="#815B96"/>
<path transform="translate(470,949)" d="m0 0h62v15l-43 1-1 17h35l5 2-1 13h-38l-1 19h41l5 1v14l-35 1h-27l-2-1-1-10v-71z" fill="#815B96"/>
<path transform="translate(117,948)" d="m0 0h15l12 3 11 7 2 2-1 5-8 8-5-2-8-5-3-1h-14l-10 5-6 8-2 7v12l3 7 4 6 9 5 4 1h11l9-4 5-4 4 1 9 8-3 5-6 5-9 4-10 2h-13l-12-3-10-6-7-7-7-14-1-3v-18l3-10 6-9 7-7 11-6z" fill="#815B96"/>
<path transform="translate(1415,850)" d="m0 0 23 1 1 99-4 2h-19l-1-1z" fill="#010001"/>
<path transform="translate(1266,1044)" d="m0 0h8l3 3 1 6-8 21-10 24-5 13 5-5 9-11 11-16 6-11 5-2 1 1-1 14-2 11-1 14 7-6 8-13 5-12 4-15 3-1 2 1-1 13-5 15-8 14-8 9-2 1h-7l-4-5-1-17-6 9-10 13-8 8-4 2-4-1-1-1v-10l5-15 15-36 3-8-8 4-3 3h-2v2l-5 5-4 5-2 9-4 1-2-3 1-9 6-10 7-7 9-6z" fill="#0A070C"/>
<path transform="translate(1348,1039)" d="m0 0h4v6l-14 25-9 20-2 6 8-6 10-7 6-2 3 2 1 9-1 6 13-5 10-5 9-3 4 4-1 5-6 5-6 3 7-1 19-10 5-6 4 1 3 1 4-2 5 1 3 2v3l-8 2-5 5-8 10-4 1-2-2 1-6 1-3-18 10-6 2h-5l-3-3-1-5 1-4-12 6-8 1-3-2v-9l1-4-7 4-10 9-5 4-5-1-2-4 1-8 10-25 10-19 7-10z" fill="#0B070D"/>
<path transform="translate(1751,1041)" d="m0 0h7l5 5 1 2v12l-4 13-4 6-4-1 1-8 4-13 1-10-8 3-7 6-11 16-8 16-4 12-1 7v9l1 2h7l11-6 16-13 11-12 5-4 5 2 1 10-3 8-5 6h-6l-4-2-5 3-10 8-12 6-3 1h-8l-6-5-2-5v-12l4-16 8-16 9-14 9-10z" fill="#0A070B"/>
<path transform="translate(1644,1081)" d="m0 0 5 1 1 4-2 7 9-2 5-2h3l-1 5-8 5-4 11-3 3-7-1-2-3 1-7 3-6-7 4-8 6-4 2h-8l-4-4-2-3-4 1-9 6-5 1-2-2 1-7-11 6-7 3h-9l-2-2-1-6 4-8 8-7 5-1 4 3v5l-8 7-4 2 5-1 16-8 12-8h6l10 5 1 5-2 7 5-1 14-9 2-2 2-7z" fill="#835D97"/>
<path transform="translate(1574,1042)" d="m0 0 5 1-1 5-7 15-10 21-6 13-6 15-4 2-1-1v-7l2-8-8 6-8 4h-6l-1-3 2-5-10 6-6 1-4-2-1-2 1-9 3-6 4-3 2 2-1 5-2 5v4l12-6 14-10h5l5 1 9-14 9-15 8-14z" fill="#815B96"/>
<path transform="translate(1827,1042)" d="m0 0h4l1 3-9 21-8 16-7 15-6 16-4 1-2-5 2-6v-5l-8 7-5 3h-7l-2-4 6-12 4-5 4-2h5l4 1 9-13 18-30zm-36 50-2 3 4-1v-2z" fill="#070509"/>
<path transform="translate(1830,1085)" d="m0 0 5 2 1 5-5 5-7 4-1 2 11-4 15-8 5-1v4l-13 8-16 8-7-1-2-2-1-6 4-8 8-7z" fill="#0A070C"/>
<path transform="translate(1442,1085)" d="m0 0 5 1 2 4-3 6-7 4-3 2 7-1 14-7 7-4h3l-1 5-21 12-7 3-7-1-3-5 2-8 7-8z" fill="#0B070C"/>
<path transform="translate(1516,1071)" d="m0 0h4l1 6-2 2-4-1-1-2z" fill="#815B96"/>
</svg>
