<?xml version="1.0" encoding="UTF-8"?>
<svg version="1.1" viewBox="0 0 2000 2000" width="1280" height="1280" xmlns="http://www.w3.org/2000/svg">
<path transform="translate(1069,800)" d="m0 0h6l2 5 8 69-6 2-26 3-24 5-23 8-19 10-14 10-9 9-5 11-1 10 3 9 4 5 6 3 5 1 15-1 25-6 41-12 30-7 16-2h20l14 2 16 5 12 7 10 9 9 10 9 15 6 14 4 17v24l-4 17-6 15-8 14-10 14-15 16-11 9-18 13-19 11-17 9-27 11-26 8-29 6-8 1-28 1-2-1-2-14-5-56v-5l32-2 20-3 23-6 19-7 16-8 15-9 10-8 8-9 4-8v-10l-4-8-5-5-9-3h-9l-18 3-30 8-31 9-28 6-20 3-1 8-8 18-6 11-10 14-12 14-12 12-17 13-19 12-19 10-21 8-18 5-17 3-11 1h-26l-17-2-20-5-20-8-18-10-16-12-12-11-12-13-11-16-10-17-10-24-5-18-3-18v-32l3-19 6-20 8-19 10-17 14-19 8-9h2l1-3 8-7 14-11 15-10 16-9 15-7 19-7 21-5 14-2h34l22 4 19 6 1 5-12 36-11 32-3 4-16-5-13-2h-22l-15 3-17 7-14 9-8 7h-2v2h-2l-2 4-7 8-8 15-4 11-2 12v20l3 16 6 15 8 15 10 13 11 11 16 10 12 5 13 3h25l15-4 13-5 14-8 10-8 9-9 10-15 6-14 4-14-1-6-8-14-6-14-3-12-1-8v-14l2-14 5-16 8-16 10-15 11-12 2-3h2l1-3 8-7 18-14 20-12 23-12 25-10 23-7 29-5z" fill="#FDFDFD"/>
<path transform="translate(1560,850)" d="m0 0h16l5 3 11 13 11 14 12 14 13 16 1-60h22l1 1v100l-17 1-5-3-9-11-12-14-11-14-13-15-2-2v57l-4 2h-18l-2-1v-100z" fill="#FDFDFD"/>
<path transform="translate(322,958)" d="m0 0h44l19 2 13 5 11 8v2h2l7 10 4 11 1 5v17l-4 13-7 11-9 8-12 6-11 3-15 1h-43l-1-1-1-51v-28l1-21zm30 19-8 1v62h31l11-4 7-6 5-10 1-3v-15l-3-9-9-10-9-4-5-1z" fill="#D3ADE7"/>
<path transform="translate(237,957)" d="m0 0h22l11 3 10 5 11 9 7 10 5 14 1 14-2 12-5 12-9 10-8 7-11 5-12 3h-19l-12-3-12-6-11-10-7-12-4-15v-11l3-13 6-12 10-11 12-7zm7 19-10 3-8 6-6 8-3 7-1 5v9l4 12 9 10 7 4 4 1h16l10-4 8-8 5-10 1-3v-13l-4-11-9-10-8-4-8-2z" fill="#D3ADE7"/>
<path transform="translate(1462,850)" d="m0 0h76l1 1v18h-54v22h47v18l-7 1h-39v22l54 1 1 4v14l-14 1h-64l-1-1-1-100z" fill="#FDFCFD"/>
<path transform="translate(1783,850)" d="m0 0h76l1 1v10l-1 8-52 1-1 21h46l2 2v15l-1 1-17 1h-30l1 22 54 1 1 1v17l-10 1h-68l-1-1-1-100z" fill="#FDFCFD"/>
<path transform="translate(442,958)" d="m0 0h74l2 1v17l-1 1h-53v22h47l1 1v9l-1 8-46 1v22l54 1v18l-19 1h-58l-1-1-1-48v-50z" fill="#D3ADE7"/>
<path transform="translate(1240,849)" d="m0 0h25l15 4 8 5-3 9-3 8-5-1-11-4-10-2h-9l-8 3-4 4-1 5 3 5 9 4 23 6 10 4 10 9 3 7v14l-5 10-8 8-9 4-15 3h-12l-20-4-13-6-2-4 4-8 3-7 5 1 8 4 11 3 13 1 10-2 5-3 1-7-2-4-10-4-25-7-12-6-6-7-3-7v-14l5-10 7-7 10-5z" fill="#FDFDFD"/>
<path transform="translate(1715,849)" d="m0 0h22l13 4 12 7 5 5-2 4-11 11-4-1-8-6-8-3h-16l-9 4-8 7-4 8-2 13 2 12 6 9 7 6 8 3h17l9-4 7-6 4 1 12 12-3 5-10 7-9 4-14 3h-12l-16-4-10-5-12-11-7-12-4-14v-14l5-16 7-11 9-8 8-5 11-4z" fill="#FDFDFD"/>
<path transform="translate(1346,849)" d="m0 0h23l12 4 12 7 5 5-2 4-11 11-5-2-9-6-6-2h-16l-9 4-8 7-4 8-1 4v17l3 8 8 9 7 4 4 1h17l9-4 7-6 5 2 10 9 1 3-4 5-11 7-11 4-10 2h-11l-14-3-10-4-9-7-8-9-6-11-3-16 1-15 5-13 8-11 8-7 14-7z" fill="#FDFDFD"/>
<path transform="translate(129,957)" d="m0 0h23l13 4 12 7 5 5-2 4-11 11-4-1-8-6-8-3-11-1-13 4-8 7-5 9-2 10 1 11 4 9 7 8 7 4 4 1h17l9-4 6-5 5 1 11 9-1 5-9 8-12 5-10 2h-18l-13-3-11-6-10-9-6-9-5-13-1-6v-11l3-13 5-10 8-10 11-8 13-5z" fill="#D3ADE7"/>
<path transform="translate(1415,850)" d="m0 0h22l2 1v100l-4 1h-19l-1-1z" fill="#FDFDFD"/>
<path transform="translate(1266,1044)" d="m0 0h8l4 5-1 7-6 16-14 34v3l8-9 14-20 7-12 3-2h3v9l-3 18-1 12 5-3 7-10 7-14 5-18 3-1 2 1-1 14-4 12-7 13-9 11-3 2h-7l-4-5-1-8v-9l-7 11-8 10-9 9-3 2h-5l-1-2v-10l6-18 12-29 5-12-6 3-10 8-6 9-2 9-3 1-3-3v-7l4-9 7-8 8-7z" fill="#FDFDFD"/>
<path transform="translate(1348,1039)" d="m0 0h4v6l-12 21-11 24-1 5 13-10 7-4 5 1 2 2v10l-1 4 25-11 4-2 5 1 2 3-1 5-6 5-5 2-1 2 13-5 13-7 5-6h4v2l5-1 1-1 7 1 2 2v3l-9 3-8 9-4 6-5-1-1-4 1-5-19 10-9 1-3-3-1-6 1-2-12 5-8 1-3-2v-12l-7 4-10 9-4 3-5-1-2-3 1-9 6-16 8-17 11-19z" fill="#FDFDFD"/>
<path transform="translate(1751,1041)" d="m0 0h7l6 7v13l-3 10-4 8-5-1 1-8 4-13v-9l-5 1-10 9-8 11-9 17-5 15-1 12 1 5h6l10-5 13-10 6-5 8-10 3-1v-2l6-2 3 2 1 10-4 10-6 5-6-2-5 1-14 10-10 5-3 1h-8l-6-5-2-4v-14l4-15 8-17 9-13 9-10z" fill="#FDFDFD"/>
<path transform="translate(1645,1081)" d="m0 0h4l1 6-2 5 9-1 5-2h3l-1 5-8 6-6 12-4 1-5-2-1-6 4-9-7 4-8 6-10 2-5-3-3-4-4 1-8 5-7 1v-8l-11 6-7 3h-9l-2-4 1-9 5-7 7-4 5 1 2 2v5l-8 7-4 2 4-1 12-5 10-6 7-5 7 1 8 3 1 1 1 12 12-6 6-5 3-8z" fill="#D3ADE7"/>
<path transform="translate(1574,1041)" d="m0 0 5 2-1 5-13 28-7 14-9 22-4 2-1-1v-7l2-7-7 4-6 4-8 1-2-2v-5l-10 6-6-1-2-2v-9l4-9 4-1 1 5-4 9-1 3 11-6 11-7 9-5 6 2 9-12 8-13 6-11 4-8z" fill="#D3ADE7"/>
<path transform="translate(1828,1041)" d="m0 0 4 2-1 5-13 28-10 22-5 14-2 2-4-1-1-5 3-10-9 7-5 3-5 1-4-2 1-7 5-8 4-5 6-3 6 2 6-7 12-19 9-17z" fill="#FDFDFD"/>
<path transform="translate(1829,1085)" d="m0 0 5 1 2 3-1 5-11 8 10-3 16-9 5 1-2 4-21 12-7 3h-6l-4-5 1-8 6-8z" fill="#FDFDFD"/>
<path transform="translate(1442,1085)" d="m0 0 5 1 2 5-3 5-9 6 8-2 15-8 3-2 5 1-2 4-21 12-7 3h-6l-4-5 1-7 4-7z" fill="#FDFDFD"/>
<path transform="translate(1517,1071)" d="m0 0 4 2-1 5-4 1-1-1v-5z" fill="#D4AFE7"/>
</svg>
